<svg width="975" height="250" fill="none" xmlns="http://www.w3.org/2000/svg"><path fill="#F7F7F7" d="M0 0h975v250H0z"/><path d="M753 158h-33" stroke="#000" stroke-width="1.5" stroke-linecap="round" stroke-dasharray="0.5 8"/><rect x="809" y="157" width="53" height="53" rx="4" transform="rotate(90 809 157)" fill="#EBEBF8"/><rect x="808.5" y="157.5" width="52" height="52" rx="3.5" transform="rotate(90 808.5 157.5)" stroke="#917EF3" stroke-opacity=".25"/><rect x="809" y="105" width="53" height="53" rx="4" transform="rotate(90 809 105)" fill="#EBEBF8"/><rect x="808.5" y="105.5" width="52" height="52" rx="3.5" transform="rotate(90 808.5 105.5)" stroke="#917EF3" stroke-opacity=".25"/><rect x="251" y="106" width="469" height="104" rx="4" fill="#EBEBF8"/><rect x="519" y="184" width="242" height="17" rx="6" transform="rotate(-180 519 184)" fill="#917EF3"/><rect x="659" y="150" width="382" height="17" rx="6" transform="rotate(-180 659 150)" fill="#917EF3"/><circle cx="194" cy="180" fill="#333293" r="29"/><path d="M274.209 55h1.462V43.24h-1.462V55zm3.522-2.822c.034 1.881 1.563 2.923 3.78 2.923 1.899 0 3.428-.991 3.428-2.587 0-1.899-1.563-2.268-3.512-2.504-1.243-.15-2.15-.268-2.15-1.21 0-.789.806-1.293 1.999-1.293 1.176 0 1.983.655 2.083 1.529h1.412c-.135-1.78-1.546-2.688-3.495-2.705-1.932-.017-3.36 1.008-3.36 2.57 0 1.781 1.529 2.168 3.444 2.403 1.277.151 2.218.235 2.218 1.31 0 .79-.857 1.31-2.067 1.31-1.428 0-2.318-.738-2.368-1.746h-1.412zm14.444.588c0 1.512.588 2.234 2.234 2.234h1.496v-1.26h-1.361c-.739 0-.991-.269-.991-.991v-5.057h2.217v-1.26h-2.217V44.03h-1.378v2.402h-1.546v1.26h1.546v5.074zm9.459-6.435c-1.444 0-2.318.706-2.822 1.512V43.24h-1.378V55h1.378v-4.284c0-1.932.991-3.125 2.587-3.125 1.479 0 2.335.941 2.335 2.722V55h1.378v-4.771c0-2.84-1.562-3.898-3.478-3.898zm6.276-1.344c.504 0 .89-.37.89-.89 0-.521-.386-.89-.89-.89a.866.866 0 00-.891.89c0 .52.387.89.891.89zM307.204 55h1.378v-8.568h-1.378V55zm3.248-2.822c.034 1.881 1.562 2.923 3.78 2.923 1.898 0 3.427-.991 3.427-2.587 0-1.899-1.562-2.268-3.511-2.504-1.243-.15-2.15-.268-2.15-1.21 0-.789.806-1.293 1.999-1.293 1.176 0 1.982.655 2.083 1.529h1.411c-.134-1.78-1.545-2.688-3.494-2.705-1.932-.017-3.36 1.008-3.36 2.57 0 1.781 1.529 2.168 3.444 2.403 1.277.151 2.217.235 2.217 1.31 0 .79-.856 1.31-2.066 1.31-1.428 0-2.318-.738-2.369-1.746h-1.411zm23.364-5.847c-1.528 0-2.452.706-2.973 1.63-.487-1.092-1.512-1.63-2.705-1.63-1.327 0-2.05.655-2.503 1.277l-.185-1.176h-1.193V55h1.378v-4.52c0-1.713.857-2.889 2.268-2.889 1.31 0 2.066.874 2.066 2.554V55h1.378v-4.586c0-1.748.873-2.823 2.301-2.823 1.294 0 2.033.874 2.033 2.554V55h1.378v-4.94c0-2.704-1.462-3.729-3.243-3.729zm9.196 8.77c1.982 0 3.393-1.26 3.729-2.974h-1.394c-.286 1.109-1.227 1.747-2.436 1.747-1.63 0-2.655-1.142-2.705-2.772v-.117h6.653a7.21 7.21 0 00.033-.588c-.067-2.537-1.646-4.066-4.065-4.066-2.419 0-4.066 1.781-4.066 4.385 0 2.62 1.68 4.385 4.251 4.385zm-2.722-5.259c.134-1.394 1.294-2.301 2.554-2.301 1.428 0 2.436.823 2.57 2.301h-5.124zm8.125 2.336c.033 1.881 1.562 2.923 3.78 2.923 1.898 0 3.427-.991 3.427-2.587 0-1.899-1.562-2.268-3.511-2.504-1.243-.15-2.151-.268-2.151-1.21 0-.789.807-1.293 2-1.293 1.176 0 1.982.655 2.083 1.529h1.411c-.134-1.78-1.546-2.688-3.494-2.705-1.932-.017-3.36 1.008-3.36 2.57 0 1.781 1.528 2.168 3.444 2.403 1.276.151 2.217.235 2.217 1.31 0 .79-.857 1.31-2.066 1.31-1.428 0-2.319-.738-2.369-1.746h-1.411zm8.555 0c.034 1.881 1.563 2.923 3.78 2.923 1.899 0 3.427-.991 3.427-2.587 0-1.899-1.562-2.268-3.511-2.504-1.243-.15-2.15-.268-2.15-1.21 0-.789.806-1.293 1.999-1.293 1.176 0 1.982.655 2.083 1.529h1.411c-.134-1.78-1.545-2.688-3.494-2.705-1.932-.017-3.36 1.008-3.36 2.57 0 1.781 1.529 2.168 3.444 2.403 1.277.151 2.218.235 2.218 1.31 0 .79-.857 1.31-2.067 1.31-1.428 0-2.318-.738-2.369-1.746h-1.411zm16.649 1.562c-.386 0-.554-.118-.554-.571v-3.747c0-1.999-1.26-3.09-3.444-3.09-2.066 0-3.427.99-3.629 2.67h1.378c.168-.873.974-1.444 2.184-1.444 1.344 0 2.133.672 2.133 1.78v.588h-2.52c-2.251 0-3.444.958-3.444 2.672 0 1.562 1.277 2.503 3.159 2.503 1.478 0 2.335-.655 2.873-1.428.016.84.403 1.327 1.545 1.327h.756v-1.26h-.437zm-1.932-2.234c0 1.428-.991 2.419-2.704 2.419-1.143 0-1.865-.571-1.865-1.411 0-.975.689-1.428 1.915-1.428h2.654v.42zm10.518-3.596c-.538-.957-1.495-1.579-2.94-1.579-2.369 0-4.116 1.764-4.116 4.385 0 2.789 1.747 4.385 4.116 4.385 1.445 0 2.369-.605 2.94-1.58v1.009c0 1.864-.975 2.704-2.772 2.704-1.428 0-2.386-.604-2.621-1.68h-1.411c.218 1.882 1.747 2.907 3.931 2.907 2.94 0 4.25-1.411 4.25-3.881v-8.148h-1.192l-.185 1.478zm-2.806 5.964c-1.697 0-2.839-1.293-2.839-3.158s1.142-3.158 2.839-3.158c1.68 0 2.823 1.31 2.823 3.192 0 1.83-1.143 3.124-2.823 3.124zm10.344 1.227c1.983 0 3.394-1.26 3.73-2.974h-1.395c-.285 1.109-1.226 1.747-2.436 1.747-1.629 0-2.654-1.142-2.704-2.772v-.117h6.652c.017-.202.034-.403.034-.588-.067-2.537-1.646-4.066-4.066-4.066-2.419 0-4.065 1.781-4.065 4.385 0 2.62 1.68 4.385 4.25 4.385zm-2.721-5.259c.134-1.394 1.293-2.301 2.553-2.301 1.428 0 2.436.823 2.571 2.301h-5.124zm12.89 2.336c.034 1.881 1.562 2.923 3.78 2.923 1.898 0 3.427-.991 3.427-2.587 0-1.899-1.562-2.268-3.511-2.504-1.243-.15-2.15-.268-2.15-1.21 0-.789.806-1.293 1.999-1.293 1.176 0 1.982.655 2.083 1.529h1.411c-.134-1.78-1.545-2.688-3.494-2.705-1.932-.017-3.36 1.008-3.36 2.57 0 1.781 1.529 2.168 3.444 2.403 1.277.151 2.217.235 2.217 1.31 0 .79-.856 1.31-2.066 1.31-1.428 0-2.318-.738-2.369-1.746h-1.411zm16.649 1.562c-.386 0-.554-.118-.554-.571v-3.747c0-1.999-1.26-3.09-3.444-3.09-2.067 0-3.427.99-3.629 2.67h1.378c.168-.873.974-1.444 2.184-1.444 1.344 0 2.133.672 2.133 1.78v.588h-2.52c-2.251 0-3.444.958-3.444 2.672 0 1.562 1.277 2.503 3.159 2.503 1.478 0 2.335-.655 2.872-1.428.017.84.404 1.327 1.546 1.327h.756v-1.26h-.437zm-1.932-2.234c0 1.428-.991 2.419-2.705 2.419-1.142 0-1.864-.571-1.864-1.411 0-.975.688-1.428 1.915-1.428h2.654v.42zm5.939 3.544l-.42 1.042c-.32.806-.454 1.008-1.244 1.008h-1.226v1.26h1.646c1.21 0 1.529-.538 2.067-1.915l3.948-10.013h-1.462l-2.553 6.838-2.638-6.838h-1.462l3.344 8.618zm6.84-10.063c.504 0 .89-.37.89-.89 0-.521-.386-.89-.89-.89s-.89.369-.89.89c0 .52.386.89.89.89zM426.702 55h1.378v-8.568h-1.378V55zm7.801-8.669c-1.445 0-2.318.605-2.822 1.26l-.185-1.159h-1.193V55h1.378v-4.284c0-1.932.974-3.125 2.587-3.125 1.495 0 2.318.941 2.318 2.722V55h1.378v-4.771c0-2.84-1.529-3.898-3.461-3.898zm12.307 1.58c-.538-.958-1.495-1.58-2.94-1.58-2.369 0-4.116 1.764-4.116 4.385 0 2.789 1.747 4.385 4.116 4.385 1.445 0 2.369-.605 2.94-1.58v1.009c0 1.864-.974 2.704-2.772 2.704-1.428 0-2.386-.604-2.621-1.68h-1.411c.218 1.882 1.747 2.907 3.931 2.907 2.94 0 4.251-1.411 4.251-3.881v-8.148h-1.193l-.185 1.478zm-2.806 5.963c-1.696 0-2.839-1.293-2.839-3.158s1.143-3.158 2.839-3.158c1.68 0 2.823 1.31 2.823 3.192 0 1.83-1.143 3.124-2.823 3.124zm10.776-1.696c.034 1.881 1.563 2.923 3.78 2.923 1.899 0 3.428-.991 3.428-2.587 0-1.899-1.563-2.268-3.512-2.504-1.243-.15-2.15-.268-2.15-1.21 0-.789.806-1.293 1.999-1.293 1.176 0 1.983.655 2.083 1.529h1.412c-.135-1.78-1.546-2.688-3.495-2.705-1.932-.017-3.36 1.008-3.36 2.57 0 1.781 1.529 2.168 3.444 2.403 1.277.151 2.218.235 2.218 1.31 0 .79-.857 1.31-2.067 1.31-1.428 0-2.318-.738-2.368-1.746h-1.412zm13.021 2.923c2.503 0 4.25-1.781 4.25-4.385s-1.747-4.385-4.25-4.385-4.251 1.781-4.251 4.385 1.748 4.385 4.251 4.385zm0-1.227c-1.697 0-2.839-1.327-2.839-3.158s1.142-3.158 2.839-3.158 2.839 1.327 2.839 3.158-1.142 3.158-2.839 3.158zm15.725-7.543c-1.529 0-2.453.706-2.974 1.63-.487-1.092-1.512-1.63-2.704-1.63-1.328 0-2.05.655-2.504 1.277l-.184-1.176h-1.193V55h1.377v-4.52c0-1.713.857-2.889 2.268-2.889 1.311 0 2.067.874 2.067 2.554V55h1.377v-4.586c0-1.748.874-2.823 2.302-2.823 1.294 0 2.033.874 2.033 2.554V55h1.377v-4.94c0-2.704-1.461-3.729-3.242-3.729zm9.195 8.77c1.983 0 3.394-1.26 3.73-2.974h-1.395c-.285 1.109-1.226 1.747-2.436 1.747-1.629 0-2.654-1.142-2.704-2.772v-.117h6.652c.017-.202.034-.403.034-.588-.067-2.537-1.646-4.066-4.066-4.066-2.419 0-4.065 1.781-4.065 4.385 0 2.62 1.68 4.385 4.25 4.385zM490 49.842c.134-1.394 1.293-2.301 2.553-2.301 1.428 0 2.436.823 2.571 2.301H490zm9.05 2.924c0 1.512.588 2.234 2.234 2.234h1.496v-1.26h-1.361c-.739 0-.991-.269-.991-.991v-5.057h2.217v-1.26h-2.217V44.03h-1.378v2.402h-1.546v1.26h1.546v5.074zm9.459-6.435c-1.445 0-2.318.706-2.822 1.512V43.24h-1.378V55h1.378v-4.284c0-1.932.991-3.125 2.587-3.125 1.478 0 2.335.941 2.335 2.722V55h1.378v-4.771c0-2.84-1.563-3.898-3.478-3.898zm6.275-1.344c.504 0 .891-.37.891-.89 0-.521-.387-.89-.891-.89s-.89.369-.89.89c0 .52.386.89.89.89zM514.079 55h1.377v-8.568h-1.377V55zm7.801-8.669c-1.445 0-2.319.605-2.823 1.26l-.185-1.159h-1.192V55h1.377v-4.284c0-1.932.975-3.125 2.587-3.125 1.496 0 2.319.941 2.319 2.722V55h1.377v-4.771c0-2.84-1.528-3.898-3.46-3.898zm12.306 1.58c-.537-.958-1.495-1.58-2.94-1.58-2.368 0-4.116 1.764-4.116 4.385 0 2.789 1.748 4.385 4.116 4.385 1.445 0 2.369-.605 2.94-1.58v1.009c0 1.864-.974 2.704-2.772 2.704-1.428 0-2.385-.604-2.62-1.68h-1.412c.219 1.882 1.748 2.907 3.932 2.907 2.94 0 4.25-1.411 4.25-3.881v-8.148h-1.193l-.185 1.478zm-2.805 5.963c-1.697 0-2.839-1.293-2.839-3.158s1.142-3.158 2.839-3.158c1.68 0 2.822 1.31 2.822 3.192 0 1.83-1.142 3.124-2.822 3.124zm15.446-7.543c-1.445 0-2.369.689-2.94 1.479l-.185-1.378h-1.192V58.36h1.377v-4.67c.521.823 1.495 1.41 2.94 1.41 2.369 0 4.116-1.763 4.116-4.384 0-2.789-1.747-4.385-4.116-4.385zm-.134 7.543c-1.68 0-2.823-1.31-2.823-3.192 0-1.83 1.143-3.124 2.823-3.124 1.697 0 2.839 1.293 2.839 3.158s-1.142 3.158-2.839 3.158zm10.108 1.227c2.504 0 4.251-1.781 4.251-4.385s-1.747-4.385-4.251-4.385c-2.503 0-4.25 1.781-4.25 4.385s1.747 4.385 4.25 4.385zm0-1.227c-1.696 0-2.839-1.327-2.839-3.158s1.143-3.158 2.839-3.158c1.697 0 2.84 1.327 2.84 3.158s-1.143 3.158-2.84 3.158zm5.781-1.696c.033 1.881 1.562 2.923 3.78 2.923 1.898 0 3.427-.991 3.427-2.587 0-1.899-1.562-2.268-3.511-2.504-1.243-.15-2.151-.268-2.151-1.21 0-.789.807-1.293 2-1.293 1.176 0 1.982.655 2.083 1.529h1.411c-.134-1.78-1.546-2.688-3.494-2.705-1.932-.017-3.36 1.008-3.36 2.57 0 1.781 1.528 2.168 3.444 2.403 1.276.151 2.217.235 2.217 1.31 0 .79-.857 1.31-2.066 1.31-1.428 0-2.319-.738-2.369-1.746h-1.411zm9.778-7.19c.504 0 .89-.37.89-.891s-.386-.89-.89-.89a.866.866 0 00-.891.89c0 .52.387.89.891.89zM571.654 55h1.378v-8.568h-1.378V55zm4.24-2.234c0 1.512.588 2.234 2.234 2.234h1.495v-1.26h-1.361c-.739 0-.991-.269-.991-.991v-5.057h2.218v-1.26h-2.218V44.03h-1.377v2.402h-1.546v1.26h1.546v5.074zm5.964-7.779c.504 0 .891-.37.891-.89 0-.521-.387-.89-.891-.89s-.89.369-.89.89c0 .52.386.89.89.89zM581.153 55h1.377v-8.568h-1.377V55zm5.953 0h1.663l3.209-8.568h-1.445l-2.571 7.006-2.587-7.006h-1.478L587.106 55zm9.807.1c1.982 0 3.393-1.26 3.729-2.973h-1.394c-.286 1.109-1.227 1.747-2.436 1.747-1.63 0-2.655-1.142-2.705-2.772v-.117h6.653a7.21 7.21 0 00.033-.588c-.067-2.537-1.646-4.066-4.065-4.066-2.419 0-4.066 1.781-4.066 4.385 0 2.62 1.68 4.385 4.251 4.385zm-2.722-5.258c.134-1.394 1.294-2.301 2.554-2.301 1.428 0 2.436.823 2.57 2.301h-5.124zm17.191 5.259c2.504 0 4.251-1.781 4.251-4.385s-1.747-4.385-4.251-4.385c-2.503 0-4.25 1.781-4.25 4.385s1.747 4.385 4.25 4.385zm0-1.227c-1.696 0-2.839-1.327-2.839-3.158s1.143-3.158 2.839-3.158c1.697 0 2.84 1.327 2.84 3.158s-1.143 3.158-2.84 3.158zm10.131-7.442c-1.529 0-2.184.638-2.587 1.294l-.185-1.294h-1.193V55h1.378v-4.368c0-1.36.487-2.856 2.285-2.856h.689v-1.344h-.387zm10.85-.1c-1.445 0-2.319.604-2.823 1.26l-.185-1.16h-1.192V55h1.377v-4.284c0-1.932.975-3.125 2.587-3.125 1.496 0 2.319.941 2.319 2.722V55h1.377v-4.771c0-2.84-1.528-3.898-3.46-3.898zm9.402 8.769c1.983 0 3.394-1.26 3.73-2.974h-1.394c-.286 1.109-1.227 1.747-2.436 1.747-1.63 0-2.655-1.142-2.705-2.772v-.117h6.653c.016-.202.033-.403.033-.588-.067-2.537-1.646-4.066-4.065-4.066-2.42 0-4.066 1.781-4.066 4.385 0 2.62 1.68 4.385 4.25 4.385zm-2.721-5.259c.134-1.394 1.293-2.301 2.553-2.301 1.428 0 2.436.823 2.571 2.301h-5.124zm15.264-1.932c-.538-.957-1.495-1.579-2.94-1.579-2.369 0-4.116 1.764-4.116 4.385 0 2.789 1.747 4.385 4.116 4.385 1.445 0 2.369-.605 2.94-1.58v1.009c0 1.864-.975 2.704-2.772 2.704-1.428 0-2.386-.604-2.621-1.68h-1.411c.218 1.882 1.747 2.907 3.931 2.907 2.94 0 4.25-1.411 4.25-3.881v-8.148h-1.192l-.185 1.478zm-2.806 5.964c-1.697 0-2.839-1.293-2.839-3.158s1.142-3.158 2.839-3.158c1.68 0 2.823 1.31 2.823 3.192 0 1.83-1.143 3.124-2.823 3.124zm13.973-.134c-.387 0-.555-.118-.555-.571v-3.747c0-1.999-1.26-3.09-3.444-3.09-2.066 0-3.427.99-3.628 2.67h1.377c.168-.873.975-1.444 2.184-1.444 1.344 0 2.134.672 2.134 1.78v.588h-2.52c-2.251 0-3.444.958-3.444 2.672 0 1.562 1.277 2.503 3.158 2.503 1.479 0 2.335-.655 2.873-1.428.017.84.403 1.327 1.546 1.327h.756v-1.26h-.437zm-1.932-2.234c0 1.428-.991 2.419-2.705 2.419-1.142 0-1.865-.571-1.865-1.411 0-.975.689-1.428 1.915-1.428h2.655v.42zm4.402 1.26c0 1.512.588 2.234 2.234 2.234h1.496v-1.26h-1.361c-.739 0-.991-.269-.991-.991v-5.057h2.217v-1.26h-2.217V44.03h-1.378v2.402h-1.546v1.26h1.546v5.074zm5.965-7.779c.504 0 .89-.37.89-.89 0-.521-.386-.89-.89-.89s-.89.369-.89.89c0 .52.386.89.89.89zM673.204 55h1.378v-8.568h-1.378V55zm5.953 0h1.663l3.209-8.568h-1.445l-2.57 7.006-2.587-7.006h-1.479L679.157 55zm9.807.1c1.983 0 3.394-1.26 3.73-2.973h-1.395c-.285 1.109-1.226 1.747-2.436 1.747-1.629 0-2.654-1.142-2.704-2.772v-.117h6.652c.017-.202.034-.403.034-.588-.067-2.537-1.646-4.066-4.066-4.066-2.419 0-4.065 1.781-4.065 4.385 0 2.62 1.68 4.385 4.25 4.385zm-2.721-5.258c.134-1.394 1.293-2.301 2.553-2.301 1.428 0 2.436.823 2.571 2.301h-5.124zm9.059-2.856c0-1.528.958-2.57 2.42-2.57 1.276 0 2.15.773 2.15 1.831 0 .924-.487 1.495-1.243 2.033-.958.655-1.798 1.21-1.798 2.554v.588h1.294v-.437c0-.924.655-1.378 1.545-2 .857-.604 1.647-1.377 1.647-2.872 0-1.714-1.411-2.974-3.612-2.974-2.369 0-3.814 1.697-3.814 3.847h1.411zm1.244 7.174c0 .571.403.94.957.94.555 0 .958-.369.958-.94s-.403-.94-.958-.94c-.554 0-.957.369-.957.94z" fill="#262626"/><path stroke="#999" d="M280.5 68v51"/><path d="M792.139 179.804c0-.97-.139-1.875-.415-2.715a7.142 7.142 0 00-1.166-2.224 5.39 5.39 0 00-1.779-1.496 4.727 4.727 0 00-2.243-.543h-3.231a9.981 9.981 0 00-2.213-.799 10.679 10.679 0 00-2.46-.277h-1.404c-.685 0-1.304.024-1.857.072a7.746 7.746 0 00-1.374.205c-.79.205-1.422.587-1.897 1.147a2.924 2.924 0 00-.711 1.947c0 .205.026.403.079.594a3.056 3.056 0 00-.781 1.056 3.096 3.096 0 00-.276 1.301c0 .396.066.765.197 1.107a2.954 2.954 0 00-.523.932 3.464 3.464 0 00-.178 1.107c0 .253.023.499.069.738.053.239.128.457.227.656-.283.491-.425 1.079-.425 1.762 0 .601.132 1.141.396 1.619.263.471.622.847 1.077 1.127.454.273.965.41 1.531.41h3.577c.079 0 .142.021.188.061.052.041.072.103.059.185-.033.246-.135.574-.306.984l-.554 1.362a15.9 15.9 0 00-.523 1.558 5.947 5.947 0 00-.228 1.598c0 .567.119 1.073.356 1.517.244.451.573.806.988 1.066.422.259.899.389 1.433.389.58 0 1.083-.167 1.512-.502.428-.335.826-.864 1.195-1.588.316-.636.652-1.257 1.008-1.865.362-.601.744-1.199 1.146-1.793.402-.595.827-1.192 1.275-1.794.448-.608.922-1.233 1.423-1.875h1.591c.764 0 1.462-.177 2.094-.533a5.281 5.281 0 001.66-1.496 7.226 7.226 0 001.077-2.233 9.563 9.563 0 00.386-2.767zm-6.798.133c0 .704-.056 1.339-.168 1.906a6.898 6.898 0 01-.564 1.67c-.256.54-.609 1.121-1.057 1.742-.5.697-1.05 1.445-1.65 2.244-.599.8-1.202 1.657-1.808 2.572-.6.916-1.15 1.896-1.65 2.941-.112.232-.218.386-.316.461a.465.465 0 01-.317.123.426.426 0 01-.355-.164c-.086-.102-.129-.246-.129-.43 0-.321.083-.714.247-1.179.172-.457.366-.946.583-1.465a16.98 16.98 0 00.583-1.547 4.76 4.76 0 00.247-1.435c0-.676-.23-1.222-.691-1.639-.462-.417-1.061-.625-1.799-.625h-3.596a.762.762 0 01-.573-.236.83.83 0 01-.218-.584c0-.287.122-.56.366-.82.191-.205.296-.451.316-.737.026-.287-.046-.526-.217-.718a2.178 2.178 0 01-.257-.41 1.099 1.099 0 01-.069-.389c0-.157.036-.304.108-.441.079-.143.198-.273.356-.389.23-.171.379-.396.445-.676a1.242 1.242 0 00-.089-.851 4.335 4.335 0 01-.178-.41 1.002 1.002 0 01-.06-.348c0-.383.241-.707.722-.973a.969.969 0 00.444-.605 1.11 1.11 0 00-.039-.748 5.47 5.47 0 01-.138-.389.964.964 0 01-.03-.246c0-.171.066-.325.198-.461.131-.137.339-.24.622-.308.29-.075.672-.13 1.146-.164a21.773 21.773 0 011.739-.041l1.117.01c1.344.014 2.519.263 3.527.748 1.008.486 1.792 1.158 2.352 2.019.566.861.85 1.858.85 2.992zm4.535-.133c0 .84-.115 1.602-.346 2.285-.231.683-.54 1.236-.929 1.66-.388.417-.817.652-1.284.707l-.297.02h-.276c.322-.696.56-1.417.711-2.162.152-.744.227-1.55.227-2.418 0-.915-.141-1.779-.425-2.592a7.448 7.448 0 00-1.225-2.234h.376c.138 0 .273.003.405.01.566.055 1.08.297 1.541.728.461.43.83.994 1.107 1.69.277.69.415 1.459.415 2.306zM769.778 136.526c0 .936.135 1.812.405 2.629.277.81.666 1.525 1.166 2.144a5.447 5.447 0 001.789 1.442c.685.35 1.433.524 2.243.524h3.231c.685.336 1.419.593 2.203.771.791.184 1.614.276 2.47.276h1.403c.686 0 1.305-.023 1.858-.069a8.62 8.62 0 001.373-.207c.791-.198 1.423-.567 1.898-1.107a2.76 2.76 0 00.711-1.877c0-.198-.03-.389-.089-.573.343-.284.606-.619.791-1.008a2.96 2.96 0 00.276-1.265 2.86 2.86 0 00-.197-1.067c.224-.257.395-.557.513-.899.126-.343.188-.702.188-1.077a3.129 3.129 0 00-.296-1.334c.283-.474.425-1.041.425-1.7 0-.579-.132-1.096-.396-1.551a2.89 2.89 0 00-1.077-1.087 2.94 2.94 0 00-1.531-.405h-3.577a.325.325 0 01-.198-.059c-.052-.04-.072-.099-.059-.178.033-.237.132-.55.296-.939.172-.395.359-.833.564-1.314.204-.487.382-.991.533-1.512.152-.527.228-1.04.228-1.541 0-.547-.122-1.034-.366-1.462a2.702 2.702 0 00-2.411-1.393c-.58 0-1.087.161-1.522.484-.428.316-.823.823-1.185 1.521a27.415 27.415 0 01-1.018 1.799 42.232 42.232 0 01-2.421 3.458c-.448.586-.919 1.189-1.413 1.808h-1.591c-.764 0-1.465.171-2.104.514a5.065 5.065 0 00-1.66 1.442 7.178 7.178 0 00-1.077 2.164 8.977 8.977 0 00-.376 2.648zm6.788-.118c0-.679.056-1.291.168-1.838.119-.547.307-1.08.564-1.601.263-.527.616-1.09 1.057-1.689.5-.672 1.051-1.393 1.65-2.164a46.448 46.448 0 001.808-2.49 23.848 23.848 0 001.66-2.826c.112-.224.214-.372.306-.445a.486.486 0 01.326-.118.42.42 0 01.346.158c.086.099.129.237.129.415 0 .316-.086.695-.257 1.136-.165.441-.356.912-.573 1.413a19.756 19.756 0 00-.583 1.502 4.356 4.356 0 00-.247 1.373c0 .653.23 1.18.691 1.581.468.402 1.071.603 1.809.603h3.596c.231 0 .419.076.563.227a.753.753 0 01.228.554c0 .283-.125.55-.376.8a1.18 1.18 0 00-.316.711c-.02.277.056.504.227.682.112.158.195.297.247.415a.868.868 0 01-.039.801 1.3 1.3 0 01-.346.365 1.09 1.09 0 00-.455.662c-.065.27-.036.54.089.81.086.158.149.29.188.396.04.105.059.217.059.336 0 .368-.24.681-.721.938a.941.941 0 00-.454.583c-.066.25-.053.491.039.721.079.178.129.303.148.376.02.072.03.148.03.227a.626.626 0 01-.198.455c-.131.131-.342.23-.632.296a6.568 6.568 0 01-1.136.158c-.475.033-1.054.046-1.739.04l-1.117-.01c-1.344-.013-2.519-.254-3.527-.721-1.008-.468-1.795-1.114-2.362-1.937-.566-.83-.85-1.795-.85-2.895zm-4.525.118c0-.803.115-1.534.346-2.193.23-.659.54-1.189.929-1.591.388-.408.816-.639 1.284-.692a4.27 4.27 0 01.277-.009 4.18 4.18 0 01.296-.01 8.887 8.887 0 00-.721 2.085 11.779 11.779 0 00-.217 2.331c0 .883.141 1.72.424 2.51a7.3 7.3 0 001.226 2.154 7.66 7.66 0 01-.386-.01c-.131 0-.263-.003-.395-.01-.566-.052-1.084-.286-1.551-.701-.461-.415-.83-.955-1.107-1.621-.27-.672-.405-1.419-.405-2.243z" fill="#917EF3"/><path d="M762.5 158a6.5 6.5 0 11-13 0 6.5 6.5 0 0113 0z" fill="#333293" stroke="#333293"/><path d="M759.471 157.946a.57.57 0 00-.049-.234.71.71 0 00-.147-.205l-3.803-3.721a.547.547 0 00-.401-.161c-.104 0-.2.026-.288.078a.568.568 0 00-.21.2.577.577 0 00.103.699l3.428 3.344-3.428 3.345a.579.579 0 00-.103.698.544.544 0 00.21.205.556.556 0 00.288.078c.16 0 .293-.055.401-.166l3.803-3.72a.723.723 0 00.147-.205.571.571 0 00.049-.235z" fill="#FBFBFB"/></svg>