<?xml version="1.0" encoding="UTF-8"?><svg id="Layer_1" data-name="Layer 1" xmlns="http://www.w3.org/2000/svg" xmlns:xlink="http://www.w3.org/1999/xlink" version="1.1" viewBox="0 0 147.6 39"><defs><style>.cls-1 {
        fill: url(#linear-gradient-5);
      }

      .cls-1, .cls-2 {
        mix-blend-mode: color-dodge;
      }

      .cls-1, .cls-2, .cls-3, .cls-4, .cls-5, .cls-6, .cls-7, .cls-8, .cls-9, .cls-10, .cls-11, .cls-12, .cls-13, .cls-14 {
        stroke-width: 0px;
      }

      .cls-1, .cls-2, .cls-6, .cls-7, .cls-8, .cls-9, .cls-15, .cls-14 {
        isolation: isolate;
      }

      .cls-2 {
        fill: url(#linear-gradient-9);
      }

      .cls-3 {
        fill: #1b1464;
      }

      .cls-16 {
        clip-path: url(#clippath);
      }

      .cls-4 {
        fill: none;
      }

      .cls-17 {
        opacity: .3;
      }

      .cls-17, .cls-18 {
        mix-blend-mode: overlay;
      }

      .cls-5 {
        fill: url(#linear-gradient);
      }

      .cls-6 {
        fill: url(#linear-gradient-6);
      }

      .cls-6, .cls-7, .cls-8, .cls-9 {
        mix-blend-mode: hard-light;
      }

      .cls-7 {
        fill: url(#linear-gradient-7);
      }

      .cls-8 {
        fill: url(#linear-gradient-10);
      }

      .cls-9 {
        fill: url(#linear-gradient-11);
      }

      .cls-10 {
        fill: url(#linear-gradient-4);
      }

      .cls-11 {
        fill: url(#linear-gradient-3);
      }

      .cls-12 {
        fill: url(#linear-gradient-8);
      }

      .cls-13 {
        fill: #fff;
      }

      .cls-14 {
        fill: url(#linear-gradient-2);
        mix-blend-mode: multiply;
      }</style><clipPath id="clippath"><path class="cls-4" d="M61.9,25.3v-13.9c0-1.4-.7-2.6-1.9-3.3l-10.1-5.8c-1.7-1-3.8.2-3.8,2.2v14.8l-7.2-4.1c-3.8-2.2-8.5-2.2-12.4,0l-7.1,4.1h0V4.5c0-2-2.1-3.2-3.8-2.2l-10.1,5.9c-1.2.7-1.9,1.9-1.9,3.3v13.9c0,2,1,3.8,2.6,4.8l9.2,5.9c2.4,1.5,5.5,1.4,7.7-.3l6.4-4.8c1.8-1.3,4.6-1.3,6.4,0l6.4,4.8c2.3,1.7,5.3,1.8,7.7.3l9.2-5.9c1.6-1,2.6-2.9,2.6-4.8h0Z"/></clipPath><linearGradient id="linear-gradient" x1="32.8" y1="50.1" x2="32.8" y2="-6.3" gradientTransform="translate(0 40) scale(1 -1)" gradientUnits="userSpaceOnUse"><stop offset=".3" stop-color="#fff500"/><stop offset=".3" stop-color="#fdf400"/><stop offset=".4" stop-color="#92df1c"/><stop offset=".5" stop-color="#43d030"/><stop offset=".5" stop-color="#12c63d"/><stop offset=".5" stop-color="#00c342"/><stop offset=".8" stop-color="#135090"/></linearGradient><linearGradient id="linear-gradient-2" x1="1.9" y1="47.2" x2="59.2" y2="-18.9" gradientTransform="translate(0 40) scale(1 -1)" gradientUnits="userSpaceOnUse"><stop offset="0" stop-color="#000" stop-opacity="0"/><stop offset=".8" stop-color="#000" stop-opacity=".6"/><stop offset="1" stop-color="#000"/></linearGradient><linearGradient id="linear-gradient-3" x1="14.2" y1="37" x2="46.6" y2="-7.3" gradientTransform="translate(0 40) scale(1 -1)" gradientUnits="userSpaceOnUse"><stop offset="0" stop-color="#fff" stop-opacity="0"/><stop offset=".1" stop-color="#fcfffa" stop-opacity="0"/><stop offset=".2" stop-color="#f4ffee" stop-opacity="0"/><stop offset=".4" stop-color="#e8ffd9" stop-opacity=".2"/><stop offset=".5" stop-color="#d7ffbc" stop-opacity=".3"/><stop offset=".7" stop-color="#c0ff97" stop-opacity=".5"/><stop offset=".8" stop-color="#a5ff69" stop-opacity=".7"/><stop offset=".9" stop-color="#86ff34" stop-opacity=".9"/><stop offset="1" stop-color="#7bff22"/></linearGradient><linearGradient id="linear-gradient-4" x1="13.7" y1="119.4" x2="13.7" y2="-37.2" gradientTransform="translate(0 40) scale(1 -1)" gradientUnits="userSpaceOnUse"><stop offset="0" stop-color="#f8ff5d"/><stop offset=".5" stop-color="#ffcb00"/><stop offset="1" stop-color="#06cd00"/></linearGradient><linearGradient id="linear-gradient-5" x1="14.1" y1="20.3" x2="2.8" y2="44.9" gradientTransform="translate(0 40) scale(1 -1)" gradientUnits="userSpaceOnUse"><stop offset="0" stop-color="#fff" stop-opacity="0"/><stop offset="1" stop-color="#fff"/></linearGradient><linearGradient id="linear-gradient-6" x1="13.7" y1="55.8" x2="13.7" y2=".9" gradientTransform="translate(0 40) scale(1 -1)" gradientUnits="userSpaceOnUse"><stop offset="0" stop-color="#2fc514"/><stop offset=".1" stop-color="#2bb814" stop-opacity=".9"/><stop offset=".4" stop-color="#219616" stop-opacity=".7"/><stop offset=".7" stop-color="#116019" stop-opacity=".4"/><stop offset="1" stop-color="#00261c" stop-opacity="0"/></linearGradient><linearGradient id="linear-gradient-7" x1="-19848.5" y1="30" x2="-19848.5" y2="1.2" gradientTransform="translate(-19832.9 40) rotate(-180)" gradientUnits="userSpaceOnUse"><stop offset="0" stop-color="#2fc514"/><stop offset=".1" stop-color="#2cbb14" stop-opacity=".9"/><stop offset=".3" stop-color="#24a015" stop-opacity=".8"/><stop offset=".6" stop-color="#177517" stop-opacity=".5"/><stop offset=".9" stop-color="#063b1a" stop-opacity=".1"/><stop offset="1" stop-color="#00261c" stop-opacity="0"/></linearGradient><linearGradient id="linear-gradient-8" x1="52" y1="120.7" x2="52" y2="-39.9" gradientTransform="translate(0 40) scale(1 -1)" gradientUnits="userSpaceOnUse"><stop offset="0" stop-color="#f8ff5d"/><stop offset=".5" stop-color="#ffcb00"/><stop offset="1" stop-color="#06cd00"/></linearGradient><linearGradient id="linear-gradient-9" x1="50.5" y1="20.3" x2="36.6" y2="46.2" gradientTransform="translate(0 40) scale(1 -1)" gradientUnits="userSpaceOnUse"><stop offset="0" stop-color="#fff" stop-opacity="0"/><stop offset="1" stop-color="#fff"/></linearGradient><linearGradient id="linear-gradient-10" x1="-20302.3" y1="55.8" x2="-20302.3" y2=".9" gradientTransform="translate(-20250.3 40) rotate(-180)" gradientUnits="userSpaceOnUse"><stop offset="0" stop-color="#2fc514"/><stop offset=".1" stop-color="#2bb814" stop-opacity=".9"/><stop offset=".3" stop-color="#219616" stop-opacity=".7"/><stop offset=".7" stop-color="#116119" stop-opacity=".4"/><stop offset="1" stop-color="#00261c" stop-opacity="0"/></linearGradient><linearGradient id="linear-gradient-11" x1="467.5" y1="30" x2="467.5" y2="1.2" gradientTransform="translate(-417.5 40) scale(1 -1)" gradientUnits="userSpaceOnUse"><stop offset="0" stop-color="#2fc514"/><stop offset="0" stop-color="#2dbe14" stop-opacity="1"/><stop offset=".3" stop-color="#28ad15" stop-opacity=".9"/><stop offset=".5" stop-color="#1f9116" stop-opacity=".7"/><stop offset=".7" stop-color="#146a18" stop-opacity=".4"/><stop offset=".9" stop-color="#05381b" stop-opacity=".1"/><stop offset="1" stop-color="#00261c" stop-opacity="0"/></linearGradient></defs><g class="cls-15"><g id="visuals"><g class="cls-16"><g><polygon class="cls-5" points="61.9 28.5 32.8 11.6 32.8 11.7 32.8 11.6 3.7 28.5 19.5 38.5 32.8 32.5 32.8 32.5 46.1 38.5 61.9 28.5"/><path class="cls-14" d="M61.9,28.5l-29.1-16.9L3.7,28.5l15.8,10.1,9.9-7.5c2-1.5,4.8-1.5,6.8,0l9.9,7.5s15.8-10.1,15.8-10.1Z"/><g class="cls-18"><path class="cls-11" d="M61.9,28.5l-29.1-16.9L3.7,28.5l7.8,5,16.5-10.5c2.9-1.9,6.7-1.9,9.6,0l16.4,10.5,7.9-5h0Z"/><g class="cls-17"><path class="cls-13" d="M61.9,28.5l-29.1-16.9L3.7,28.5l7.8,5,16.5-10.5c2.9-1.9,6.7-1.9,9.6,0l16.4,10.5,7.9-5h0Z"/></g></g><path class="cls-10" d="M23.6,35.4l-4.1,3.1L3.7,28.5V9.2L19.5,0v33.3c0,1.5,1.2,2.6,2.6,2.6s1.1-.2,1.5-.5h0Z"/><path class="cls-1" d="M23.6,35.4l-4.1,3.1L3.7,28.5V9.2L19.5,0v33.3c0,1.5,1.2,2.6,2.6,2.6s1.1-.2,1.5-.5h0Z"/><path class="cls-6" d="M22.1,35.9c-1.3,0-2.6-1.1-2.6-2.6v-14l-11.9,6.9c-.4.2-.9.4-1.3.4-1.3,0-2.6-1.1-2.6-2.6v4.5l15.8,10.1,4.1-3.1c-.5.4-1,.5-1.5.5h0Z"/><path class="cls-7" d="M22.1,35.9c-1.3,0-2.6-1.1-2.6-2.6v-4.9h0l-4.5,2.8c-2.2,1.4-5.1,1.1-7.3-.3h0s11.9,7.5,11.9,7.5h0l4.1-3.1c-.5.4-1,.5-1.5.5h0Z"/><path class="cls-12" d="M42,35.4l4.1,3.1,15.8-10.1V9.2L46.1,0v33.3c0,1.5-1.2,2.6-2.6,2.6s-1.1-.2-1.5-.5h0Z"/><path class="cls-2" d="M42,35.4l4.1,3.1,15.8-10.1V9.2L46.1,0v33.3c0,1.5-1.2,2.6-2.6,2.6s-1.1-.2-1.5-.5h0Z"/><path class="cls-8" d="M42,35.4l4.1,3.1,15.8-10.1v-4.5c0,1.5-1.2,2.6-2.6,2.6s-.9-.1-1.3-.4l-11.9-6.9v14c0,1.5-1.2,2.6-2.6,2.6s-1.1-.2-1.5-.5h0Z"/><path class="cls-9" d="M42,35.4l4.1,3.1h0l11.9-7.6h0c-2.2,1.4-5.1,1.7-7.3.3l-4.5-2.8h0v4.9c0,1.5-1.2,2.6-2.6,2.6s-1.1-.2-1.5-.5h0Z"/></g></g></g></g><g><path class="cls-3" d="M83.9,14.4c.7.3,1.1.6,1.1,1.1s0,.4-.2.8l-3.2,9.1c0,0,0,.2-.1.3,0,.1-.2.3-.4.4s-.5.3-.8.3-.6,0-.8-.3c-.2-.2-.4-.4-.5-.5l-1.9-5.7c-1.2,3.6-1.8,5.4-1.9,5.5,0,0,0,.2-.1.3s-.2.2-.3.3c-.3.3-.6.4-.9.4s-.6,0-.9-.2c-.2-.2-.4-.3-.5-.5v-.2c-.1,0-3.3-9.1-3.3-9.1-.1-.4-.2-.6-.2-.8,0-.4.4-.8,1.1-1,.3-.1.6-.2.9-.2s.5,0,.6.3.3.4.4.8l1.8,5.5,1.8-5.4c.2-.5.4-.8.8-1,.2,0,.4-.1.7-.1s.5,0,.8.3c.2.2.4.4.5.5l1.9,5.7,1.8-5.5c0-.3.2-.4.2-.6,0-.1.2-.2.3-.4s.3-.2.6-.2.5,0,.8.2h0Z"/><path class="cls-3" d="M93.1,21c0,.7-.2,1.2-.5,1.5s-.7.5-1.1.5h-3.9c0,.3.2.6.5.8s.7.3,1.1.3c.6,0,1.1,0,1.5-.2h.2c.3-.2.5-.2.7-.2.4,0,.7.2.9.7.1.3.2.5.2.8,0,1-1.2,1.5-3.5,1.5s-1.5-.1-2.2-.4-1.1-.6-1.5-1.1c-.7-.9-1-1.9-1-3s.4-2.5,1.3-3.3c.9-.8,2-1.2,3.3-1.2s2.6.5,3.4,1.6c.4.6.6,1.2.6,1.9h0ZM89.6,21.5c.4,0,.6-.2.6-.5s0-.5-.3-.6c-.2-.2-.5-.2-.8-.2s-.7.1-1.1.4c-.4.3-.5.6-.5.9h2.1s0,0,0,0Z"/><path class="cls-3" d="M99.8,18.7c0-.6.5-.9,1.3-.9s.7,0,1,0c.2,0,.4.2.4.3s.1.3.1.4c0,.1,0,.3,0,.6v5.8c0,.3,0,.4,0,.6,0,.1,0,.3-.1.4-.2.3-.5.4-1.1.4s-1,0-1.2-.2c-.2-.1-.3-.4-.4-.6-.4.6-1.1.9-2,.9s-1.8-.4-2.6-1.3c-.8-.9-1.2-1.9-1.2-3s.4-2.1,1.2-3c.8-.9,1.7-1.3,2.7-1.3s.7,0,1,.2c.3.1.5.3.6.4.1.1.2.2.3.3h0ZM96.8,22.1c0,.4.1.7.4,1,.3.3.6.4,1,.4s.7-.1,1-.4.4-.6.4-1-.1-.7-.4-1c-.3-.3-.6-.5-1-.5s-.8.2-1.1.5-.4.6-.4,1h0Z"/><path class="cls-3" d="M112.5,17.9c.6.3.9.7.9,1.1s-.1.5-.3.9l-3.4,5.8c-.1.2-.3.4-.5.5-.2.1-.5.2-.7.2s-.5,0-.7-.2-.4-.2-.5-.4v-.2c-.1,0-3.6-5.9-3.6-5.9-.2-.4-.3-.7-.3-.9,0-.4.3-.8.9-1.1.4-.2.7-.4,1-.4s.4,0,.6.2c.1.1.3.4.4.7l2.2,4.1,2.2-4.1c.1-.2.2-.4.3-.5,0,0,.2-.2.3-.3s.3-.1.5-.1.5.1.9.3h0Z"/><path class="cls-3" d="M116.9,16.1c0,.2-.2.3-.4.3s-.5,0-.8,0-.6,0-.8,0c-.2,0-.4-.2-.4-.3s-.1-.3-.1-.4c0-.1,0-.3,0-.6s0-.4,0-.6c0-.1,0-.3.1-.4.2-.3.6-.4,1.3-.4s1.1.1,1.3.4c0,.2.1.3.2.4,0,.1,0,.3,0,.6s0,.4,0,.6c0,.1,0,.3-.1.4h0ZM114.2,19.2c0-.3,0-.4,0-.6,0-.1,0-.3.1-.4.2-.3.6-.4,1.3-.4s.9,0,1.1.3c.2.2.3.4.3.7,0,.1,0,.3,0,.5v5.8c0,.3,0,.4,0,.6,0,.1,0,.3-.2.4-.1.3-.6.4-1.3.4s-1.1-.1-1.3-.4c0-.2-.1-.3-.1-.4,0-.1,0-.3,0-.6v-5.8h0Z"/><path class="cls-3" d="M124,18.7c0-.6.5-.9,1.3-.9s.7,0,1,0c.2,0,.4.2.4.3s.1.3.1.4c0,.1,0,.3,0,.6v5.8c0,.3,0,.4,0,.6,0,.1,0,.3-.1.4-.2.3-.5.4-1.1.4s-1,0-1.2-.2c-.2-.1-.3-.4-.4-.6-.4.6-1.1.9-2,.9s-1.8-.4-2.6-1.3c-.8-.9-1.2-1.9-1.2-3s.4-2.1,1.2-3c.8-.9,1.7-1.3,2.7-1.3s.7,0,1,.2c.3.1.5.3.6.4.1.1.2.2.3.3h0ZM121,22.1c0,.4.1.7.4,1,.3.3.6.4,1,.4s.7-.1,1-.4c.3-.3.4-.6.4-1s-.1-.7-.4-1c-.3-.3-.6-.5-1-.5s-.8.2-1.1.5-.4.6-.4,1h0Z"/><path class="cls-3" d="M133.2,20.7h-1.1c0,0,0,2.2,0,2.2,0,.3,0,.5.1.6s.3.2.5.2.5,0,.6,0c.1,0,.3,0,.4.2.3.1.4.5.4,1.1s-.2,1.1-.5,1.3c-.2,0-.3.1-.4.1-.1,0-.3,0-.6,0-1.1,0-2-.3-2.6-.8-.6-.5-.9-1.4-.9-2.6v-2.4c-.2,0-.4,0-.7,0s-.4,0-.6-.3-.2-.5-.2-1,0-.8,0-1c0-.2.1-.3.2-.4.2-.1.4-.2.7-.2h.5c0,0,0-1.6,0-1.6,0-.3,0-.4,0-.6,0-.1,0-.3.2-.4.1-.3.6-.4,1.3-.4s1.2.2,1.3.6c0,.2,0,.5,0,.8v1.6c.5,0,.8,0,1.1,0s.4,0,.6,0c.1,0,.3,0,.4.2.3.1.4.6.4,1.3s-.1,1.1-.4,1.3c-.2,0-.3.1-.4.1-.1,0-.3,0-.6,0h0Z"/><path class="cls-3" d="M143.6,21c0,.7-.2,1.2-.5,1.5s-.7.5-1.1.5h-3.9c0,.3.2.6.5.8s.7.3,1.1.3c.6,0,1.1,0,1.5-.2h.2c.3-.2.5-.2.7-.2.4,0,.7.2.9.7.1.3.2.5.2.8,0,1-1.2,1.5-3.5,1.5s-1.5-.1-2.2-.4-1.1-.6-1.5-1.1c-.7-.9-1-1.9-1-3s.4-2.5,1.3-3.3c.9-.8,2-1.2,3.3-1.2s2.6.5,3.4,1.6c.4.6.6,1.2.6,1.9h0ZM140.2,21.5c.4,0,.6-.2.6-.5s0-.5-.3-.6c-.2-.2-.5-.2-.8-.2s-.7.1-1.1.4-.5.6-.5.9h2.1s0,0,0,0Z"/></g></svg>