<svg width="28" height="28" viewBox="0 0 28 28" fill="none" xmlns="http://www.w3.org/2000/svg"><g clip-path="url(#clip0_609_11740)"><path fill-rule="evenodd" clip-rule="evenodd" d="M8.99065 16.795C9.71519 16.795 11.1564 16.7552 13.1486 15.9351C15.4701 14.9793 20.0888 13.2442 23.4206 11.462C25.7509 10.2155 26.7723 8.56688 26.7723 6.34675C26.7724 3.26547 24.2745 0.767578 21.1932 0.767578H8.28319C3.85732 0.767578 0.26947 4.35543 0.26947 8.7813C0.26947 13.2072 3.62877 16.795 8.99065 16.795Z" fill="#FAFAFA"/><path fill-rule="evenodd" clip-rule="evenodd" d="M11.1738 22.3162C11.1738 20.1467 12.4799 18.1906 14.4837 17.359L18.5493 15.6717C22.6617 13.965 27.1881 16.9871 27.1881 21.4396C27.1881 24.8893 24.3911 27.6855 20.9415 27.6846L16.5396 27.6834C13.5759 27.6826 11.1738 25.2799 11.1738 22.3162Z" fill="#FAFAFA"/><path d="M4.88915 17.8486H4.88907C2.33774 17.8486 0.26947 19.9169 0.26947 22.4682V23.0666C0.26947 25.6179 2.33774 27.6862 4.88907 27.6862H4.88915C7.44049 27.6862 9.50875 25.6179 9.50875 23.0666V22.4682C9.50875 19.9169 7.44049 17.8486 4.88915 17.8486Z" fill="#FAFAFA"/></g><defs><clipPath id="clip0_609_11740"><rect width="26.9185" height="26.9185" fill="white" transform="translate(0.26947 0.767578)"/></clipPath></defs></svg>