<?xml version="1.0" encoding="UTF-8"?><svg version="1.1" viewBox="0 0 372 72" xmlns="http://www.w3.org/2000/svg"><title>OpenSearch logo</title><desc>Search engine software fork of Elasticsearch</desc><path d="m61.7374 26.5c-1.2496 0-2.2626 1.013-2.2626 2.2626 0 18.6188-15.0934 33.7122-33.7122 33.7122-1.2496 0-2.2626 1.013-2.2626 2.2626s1.013 2.2626 2.2626 2.2626c21.1179 0 38.2374-17.1195 38.2374-38.2374 0-1.2496-1.013-2.2626-2.2626-2.2626z" fill="#00A3E0"/><path d="m48.0814 41c2.1758-3.5495 4.2801-8.2822 3.8661-14.9079-0.8576-13.7248-13.2886-24.13673-25.0269-23.00837-4.5953 0.44174-9.3138 4.18747-8.8946 10.89677 0.1822 2.9156 1.6092 4.6364 3.9284 5.9594 2.2074 1.2593 5.0434 2.057 8.2584 2.9612 3.8834 1.0923 8.3881 2.3192 11.8503 4.8706 4.1494 3.0579 6.986 6.6026 6.0183 13.2283z" fill="#B9D9EB"/><path d="m3.91861 17c-2.17585 3.5495-4.280116 8.2822-3.866117 14.9079 0.8575789 13.7248 13.28861 24.1367 25.02691 23.0084 4.5953-0.4418 9.3138-4.1875 8.8946-10.8968-0.1822-2.9156-1.6093-4.6364-3.9284-5.9594-2.2074-1.2593-5.0434-2.057-8.2584-2.9612-3.8834-1.0923-8.3881-2.3192-11.85025-4.8706-4.14948-3.0579-6.98603-6.6026-6.01834-13.2283z" fill="#00A3E0"/><path d="m362.5 31v23h9v-25c0-4.6073-0.9-8.0879-2.701-10.4489-1.801-2.3839-4.517-3.5511-8.049-3.5511-3.832 0-6.903 2.2408-8.75 6h-0.5c0.136-1.9409 0.26-3.0528 0.35-3.8647 0.093-0.8373 0.15-1.3556 0.15-2.1353v-14.5h-9v53.5h9.5v-18.5c0-4.1489 0.139-7.2185 0.993-9.419 0.854-2.2235 2.343-3.3352 4.467-3.3352 2.839 0 4.54 2.6383 4.54 8.2542zm-130.648 20.2289c2.432-2.5141 3.648-6.1353 3.648-10.8636 0-2.9524-0.666-5.5818-1.999-7.8883-1.31-2.3065-3.636-4.5668-6.98-6.7811-2.479-1.6145-4.221-3.0561-5.227-4.3246-0.982-1.2686-1.473-2.7563-1.473-4.4631 0-1.7299 0.409-3.0907 1.228-4.0825 0.842-1.0149 2.034-1.5223 3.578-1.5223 1.403 0 2.712 0.2537 3.928 0.7611 1.239 0.5075 2.42 1.0841 3.543 1.7299l3.156-7.54224c-3.624-2.16811-7.4-3.25216-11.329-3.25216-4.116 0-7.401 1.26857-9.856 3.80572-2.432 2.53715-3.648 5.97388-3.648 10.31008 0 2.2603 0.304 4.2439 0.912 5.9507 0.631 1.7068 1.508 3.2522 2.631 4.6361 1.145 1.3608 2.817 2.7909 5.015 4.2901 2.526 1.7068 4.338 3.2637 5.437 4.6706 1.099 1.3839 1.649 2.9178 1.649 4.6015 0 1.7068-0.468 3.0561-1.403 4.0479-0.912 0.9918-2.28 1.4877-4.104 1.4877-3.204 0-6.723-1.234-10.558-3.7019v9.3067c3.133 1.7299 6.933 2.5948 11.4 2.5948 4.559 0 8.044-1.257 10.452-3.7711zm9.822-1.3544c2.806 3.417 6.632 5.1255 11.478 5.1255 4.151 0 7.71-0.8889 10.678-2.6667v-7.5844c-3.153 1.8701-6.237 2.8052-9.252 2.8052-2.365 0-4.22-0.8312-5.565-2.4935-1.345-1.6854-1.943-4.1205-2.013-7.5606h18.5v-5.0455c0-5.518-1.217-9.8008-3.652-12.8484-2.435-3.0707-5.762-4.6061-9.983-4.6061-4.522 0-8.046 1.7893-10.574 5.368-2.527 3.5786-3.791 8.5541-3.791 14.9264 0 6.2799 1.391 11.1399 4.174 14.5801zm6.852-25.6624c0.858-1.4083 1.948-2.1125 3.27-2.1125 1.414 0 2.527 0.7272 3.339 2.1818 0.811 1.4545 1.319 3.9019 1.365 6.7186h-9.5c0.139-2.9322 0.668-5.4026 1.526-6.7879zm39.474 29.7879-1.5-5h-0.5c-1.378 2.2587-2.705 3.868-4.176 4.7208-1.472 0.8528-3.33 1.2792-5.572 1.2792-2.874 0-5.14-1.0602-6.799-3.1806-1.635-2.1205-2.453-5.0706-2.453-8.8505 0-4.0565 1.121-7.0643 3.364-9.0234 2.266-1.9821 5.642-3.0769 10.128-3.2843l5.186-0.2074v-2.7658c0-3.5955-1.577-5.3933-4.731-5.3933-2.336 0-5.023 0.8989-8.06 2.6967l-3.224-6.3613c3.878-2.4201 8.031-3.6301 12.587-3.6301 4.135 0 7.342 1.1755 9.491 3.5264 2.173 2.3278 3.259 5.6352 3.259 9.9222v25.5514h-7zm-7.929-6.191c1.706 0 3.061-0.7491 4.065-2.2472 1.028-1.5212 1.542-3.5379 1.542-6.0501v-3.2498l-2.873 0.1383c-2.126 0.1152-3.692 0.7145-4.696 1.7977-0.981 1.0833-1.472 2.6967-1.472 4.8401 0 3.1807 1.145 4.771 3.434 4.771zm37.929-32.059c-1.07-0.345-2.663-0.75-3.778-0.75-1.571 0-2.949 0.5174-4.133 1.5523s-2.087 2.033-3.089 4.4477h-0.5l-1.5-5h-7v38h9.463v-20c0-3.3576 0.213-5.5237 1.397-7.2715 1.184-1.7708 2.88-2.6562 5.088-2.6562 1.025 0 1.915 0.1977 2.552 0.4277l1.5-8.75zm14 39.25c-4.557 0-8.046-1.522-10.427-4.8698-2.382-3.3478-3.573-8.2655-3.573-14.7532 0-6.7879 1.122-11.8557 3.366-15.2035 2.268-3.3478 5.651-5.1735 10.369-5.1735 1.419 0 3.017 0.3596 4.574 0.7752s3.454 0.9398 4.691 1.7248l-3.111 7.2449c-1.9-1.1313-3.584-1.6969-5.049-1.6969-1.947 0-3.355 1.0274-4.226 3.0822-0.847 2.0318-1.27 5.0909-1.27 9.1775 0 3.9942 0.423 6.9841 1.27 8.9697 0.848 1.9625 2.233 2.9437 4.157 2.9437 2.29 0 4.683-0.8081 7.179-2.4242v8.1039c-2.404 1.5007-5.042 2.0992-7.95 2.0992z" clip-rule="evenodd" fill="#B9D9EB" fill-rule="evenodd"/><path d="m107.777 48.2625c3.149-4.4917 4.723-10.9183 4.723-19.2798 0-8.3614-1.563-14.7765-4.688-19.24516-3.126-4.49169-7.618-6.73754-13.4752-6.73754-5.927 0-10.4649 2.23433-13.6137 6.70299-3.1487 4.44561-4.7231 10.84921-4.7231 19.21061 0 8.4306 1.5744 14.8917 4.7231 19.3834 3.1488 4.4687 7.6635 6.703 13.5443 6.703 5.8576 0 10.3606-2.2458 13.5096-6.7375zm-19.9345-6.1157c-1.4586-3.0175-2.1879-7.4055-2.1879-13.1641 0-5.7816 0.7293-10.1696 2.1879-13.1641 1.4586-3.0175 3.6234-4.5262 6.4943-4.5262 5.6492 0 8.4742 5.8967 8.4742 17.6903s-2.8481 17.6904-8.5436 17.6904c-2.8246 0-4.9663-1.5088-6.4249-4.5263zm40.3435 11.8511c1.283 0.7408 2.664 1.0021 4.314 1.0021 3.53 0 6.4-1.6735 8.44-5.2388 2.04-3.5652 3.06-8.4848 3.06-14.7587 0-6.3666-0.986-11.2861-2.957-14.7588-1.971-3.4958-4.698-5.2437-8.182-5.2437-3.621 0-6.459 2.1569-8.361 6h-0.5l-1.5-5h-7v55.5h9v-16.5c0-0.6482-0.133-2.8515-0.5-6h0.5c0.75 2.25 2.425 4.2339 3.686 4.9979zm-2.304-28.6147c0.803-1.69 2.097-2.535 3.885-2.535 1.673 0 2.899 0.9955 3.679 2.9865 0.802 1.991 1.203 5.0006 1.203 9.0289 0 8.1954-1.604 12.2931-4.813 12.2931-1.857 0-3.186-0.9723-3.988-2.917s-1.203-5.0469-1.203-9.3067v-1.2154c0.046-3.8894 0.458-6.6675 1.237-8.3344zm35.77 29.6168c-4.846 0-8.672-1.7085-11.478-5.1255-2.783-3.4402-4.174-8.3002-4.174-14.5801 0-6.3723 1.264-11.3478 3.791-14.9264 2.528-3.5787 6.052-5.368 10.574-5.368 4.22 0 7.548 1.5354 9.983 4.6061 2.435 3.0476 3.652 7.3304 3.652 12.8484v5.0455h-18.5c0.07 3.4401 0.668 5.8752 2.013 7.5606 1.345 1.6623 3.2 2.4935 5.565 2.4935 3.015 0 6.099-0.9351 9.252-2.8052v7.5844c-2.968 1.7778-6.527 2.6667-10.678 2.6667zm-1.356-32.9004c-1.322 0-2.412 0.7042-3.27 2.1125-0.858 1.3853-1.387 3.8557-1.526 6.7879h9.5c-0.046-2.8167-0.554-5.2641-1.365-6.7186-0.812-1.4546-1.925-2.1818-3.339-2.1818zm36.204 8.9004v23h9v-24.8009c0-4.6402-0.877-8.1668-2.632-10.5797-1.731-2.4129-4.352-3.6194-7.861-3.6194-2.077 0-3.89 0.5104-5.437 1.5313-1.546 0.9976-2.739 2.6822-3.57 4.4687h-0.5l-1.25-5h-7.25v38h9.5v-18.25c0-4.7098 0.173-7.9198 1.097-9.8918 0.923-1.9954 2.377-2.993 4.363-2.993 1.5 0 2.586 0.7192 3.255 2.1577 0.67 1.4385 1.285 3.1698 1.285 5.9771z" clip-rule="evenodd" fill="#00A3E0" fill-rule="evenodd"/></svg>